<svg xmlns="http://www.w3.org/2000/svg" viewBox="0 0 18 14" width="360" height="280" shape-rendering="crispEdges"><rect width="18" height="14" fill="#0a0a0a"/><rect x="7.093" y="2.093" width="0.815" height="0.815" fill="#8b5cf6"/><rect x="8.092" y="2.093" width="0.815" height="0.815" fill="#8b5cf6"/><rect x="9.092" y="2.093" width="0.815" height="0.815" fill="#8b5cf6"/><rect x="3.093" y="3.093" width="0.815" height="0.815" fill="#8b5cf6"/><rect x="4.093" y="3.093" width="0.815" height="0.815" fill="#8b5cf6"/><rect x="5.093" y="3.093" width="0.815" height="0.815" fill="#8b5cf6"/><rect x="6.093" y="3.093" width="0.815" height="0.815" fill="#8b5cf6"/><rect x="7.093" y="3.093" width="0.815" height="0.815" fill="#8b5cf6"/><rect x="8.092" y="3.093" width="0.815" height="0.815" fill="#8b5cf6"/><rect x="9.092" y="3.093" width="0.815" height="0.815" fill="#f87171"/><rect x="10.09" y="3.093" width="0.815" height="0.815" fill="#f87171"/><rect x="11.09" y="3.093" width="0.815" height="0.815" fill="#f87171"/><rect x="12.09" y="3.093" width="0.815" height="0.815" fill="#f87171"/><rect x="13.09" y="3.093" width="0.815" height="0.815" fill="#f87171"/><rect x="2.093" y="4.093" width="0.815" height="0.815" fill="#3b82f6"/><rect x="14.09" y="4.093" width="0.815" height="0.815" fill="#f87171"/><rect x="2.093" y="5.093" width="0.815" height="0.815" fill="#3b82f6"/><rect x="7.093" y="5.093" width="0.815" height="0.815" fill="#2dd4bf"/><rect x="8.092" y="5.093" width="0.815" height="0.815" fill="#8b5cf6"/><rect x="9.092" y="5.093" width="0.815" height="0.815" fill="#8b5cf6"/><rect x="14.09" y="5.093" width="0.815" height="0.815" fill="#f87171"/><rect x="2.093" y="6.093" width="0.815" height="0.815" fill="#3b82f6"/><rect x="6.093" y="6.093" width="0.815" height="0.815" fill="#2dd4bf"/><rect x="10.09" y="6.093" width="0.815" height="0.815" fill="#8b5cf6"/><rect x="14.09" y="6.093" width="0.815" height="0.815" fill="#f87171"/><rect x="2.093" y="7.093" width="0.815" height="0.815" fill="#3b82f6"/><rect x="6.093" y="7.093" width="0.815" height="0.815" fill="#2dd4bf"/><rect x="8.092" y="7.093" width="0.815" height="0.815" fill="#f87171"/><rect x="10.09" y="7.093" width="0.815" height="0.815" fill="#8b5cf6"/><rect x="14.09" y="7.093" width="0.815" height="0.815" fill="#f87171"/><rect x="2.093" y="8.092" width="0.815" height="0.815" fill="#3b82f6"/><rect x="6.093" y="8.092" width="0.815" height="0.815" fill="#2dd4bf"/><rect x="10.09" y="8.092" width="0.815" height="0.815" fill="#3b82f6"/><rect x="14.09" y="8.092" width="0.815" height="0.815" fill="#f87171"/><rect x="2.093" y="9.092" width="0.815" height="0.815" fill="#3b82f6"/><rect x="7.093" y="9.092" width="0.815" height="0.815" fill="#3b82f6"/><rect x="8.092" y="9.092" width="0.815" height="0.815" fill="#3b82f6"/><rect x="9.092" y="9.092" width="0.815" height="0.815" fill="#3b82f6"/><rect x="14.09" y="9.092" width="0.815" height="0.815" fill="#f87171"/><rect x="2.093" y="10.09" width="0.815" height="0.815" fill="#3b82f6"/><rect x="14.09" y="10.09" width="0.815" height="0.815" fill="#f87171"/><rect x="3.093" y="11.09" width="0.815" height="0.815" fill="#3b82f6"/><rect x="4.093" y="11.09" width="0.815" height="0.815" fill="#3b82f6"/><rect x="5.093" y="11.09" width="0.815" height="0.815" fill="#2dd4bf"/><rect x="6.093" y="11.09" width="0.815" height="0.815" fill="#2dd4bf"/><rect x="7.093" y="11.09" width="0.815" height="0.815" fill="#2dd4bf"/><rect x="8.092" y="11.09" width="0.815" height="0.815" fill="#2dd4bf"/><rect x="9.092" y="11.09" width="0.815" height="0.815" fill="#2dd4bf"/><rect x="10.09" y="11.09" width="0.815" height="0.815" fill="#2dd4bf"/><rect x="11.09" y="11.09" width="0.815" height="0.815" fill="#2dd4bf"/><rect x="12.09" y="11.09" width="0.815" height="0.815" fill="#2dd4bf"/><rect x="13.09" y="11.09" width="0.815" height="0.815" fill="#2dd4bf"/></svg>